<?xml version="1.0" standalone="no"?>
<!DOCTYPE svg PUBLIC "-//W3C//DTD SVG 20010904//EN"
 "http://www.w3.org/TR/2001/REC-SVG-20010904/DTD/svg10.dtd">
<svg version="1.0" xmlns="http://www.w3.org/2000/svg"
 width="260.000000pt" height="260.000000pt" viewBox="0 0 260.000000 260.000000"
 preserveAspectRatio="xMidYMid meet">
<metadata>
Created by potrace 1.11, written by Peter Selinger 2001-2013
</metadata>
<g transform="translate(0.000000,260.000000) scale(0.100000,-0.100000)"
fill="#000000" stroke="none">
<path d="M288 1734 c-59 -18 -102 -68 -119 -138 -13 -54 -16 -529 -4 -589 13
-61 52 -114 102 -139 l48 -23 955 -2 c617 -1 973 1 1007 8 70 14 112 44 142
103 l26 50 -1 295 c0 283 -1 298 -22 337 -26 51 -71 90 -120 104 -24 6 -367
10 -1002 9 -811 0 -972 -3 -1012 -15z m1860 -194 l82 0 0 -245 0 -246 -405 2
c-223 1 -406 5 -406 8 -1 3 -2 113 -3 243 -1 201 1 238 13 240 8 2 154 2 325
1 171 -1 348 -2 394 -3z m-950 -244 l-1 -243 -409 -2 c-224 -1 -409 2 -409 6
-1 4 -2 115 -3 246 l-2 237 412 0 412 0 0 -244z"/>
</g>
</svg>
